<svg width="28" height="28" viewBox="0 0 28 28" fill="none" xmlns="http://www.w3.org/2000/svg">
<path d="M23.0574 12.6804H25.3632C25.3632 6.766 20.898 2.30542 14.9756 2.30542V4.61123C19.6587 4.61123 23.0574 8.00422 23.0574 12.6804Z" fill="white"/>
<path d="M14.9864 9.22348C17.4109 9.22348 18.4451 10.2576 18.4451 12.6822H20.7509C20.7509 8.96408 18.7045 6.91767 14.9864 6.91767V9.22348ZM18.9316 15.4987C18.7101 15.2974 18.419 15.19 18.1198 15.1992C17.8205 15.2085 17.5366 15.3337 17.3279 15.5483L14.569 18.3856C13.905 18.2588 12.5699 17.8426 11.1956 16.4718C9.82138 15.0964 9.40518 13.7578 9.28182 13.0984L12.1168 10.3383C12.3317 10.1298 12.4571 9.84584 12.4663 9.54653C12.4756 9.24722 12.368 8.95605 12.1664 8.73465L7.90641 4.0504C7.7047 3.82831 7.42436 3.69359 7.12492 3.67486C6.82548 3.65613 6.53053 3.75487 6.30272 3.9501L3.80092 6.09565C3.6016 6.2957 3.48263 6.56195 3.46658 6.84389C3.44929 7.13211 3.11956 13.9596 8.41369 19.256C13.0322 23.8734 18.8175 24.2112 20.4108 24.2112C20.6437 24.2112 20.7866 24.2043 20.8247 24.202C21.1066 24.1862 21.3727 24.0667 21.5718 23.8665L23.7162 21.3635C23.9115 21.1359 24.0105 20.841 23.992 20.5416C23.9735 20.2421 23.8389 19.9617 23.617 19.7599L18.9316 15.4987Z" fill="white"/>
</svg>
