<svg width="440" height="457" viewBox="0 0 440 457" fill="none" xmlns="http://www.w3.org/2000/svg">
<path fill-rule="evenodd" clip-rule="evenodd" d="M0.78512 394.961C65.1582 368.973 111.13 233.605 189.053 270.382C189.345 270.534 189.535 270.67 189.81 270.925C191.066 271.654 192.272 272.691 193.308 274.122C194.777 276.15 195.389 278.25 195.57 279.755C195.606 280.182 195.643 280.609 195.697 280.934C195.664 281.139 195.733 281.361 195.7 281.567C195.784 286.954 195.575 292.188 195.09 297.168L195.073 297.27C185.919 386.937 81.2973 405.814 0.998409 396.26C0.277902 396.144 0.204345 395.289 0.78512 394.961Z" fill="#417538"/>
<path fill-rule="evenodd" clip-rule="evenodd" d="M288.07 237.115C288.206 236.927 288.239 236.721 288.478 236.549C288.866 235.452 289.665 234.422 290.637 233.63C291.984 232.477 293.661 231.904 295.357 231.861C295.477 231.775 295.579 231.792 295.699 231.705C378.052 229.157 395.659 317.231 387.844 384.144C387.832 384.879 386.769 384.919 386.457 384.236C365.15 334.236 259.466 298.047 288.07 237.115Z" fill="#7DA761"/>
<path fill-rule="evenodd" clip-rule="evenodd" d="M411.632 55.9708C412.249 56.0702 412.426 56.9416 411.845 57.2695C378.307 72.1008 353.951 141.408 313.49 124.464C313.387 124.447 313.181 124.414 313.095 124.295C312.992 124.279 312.802 124.143 312.596 124.109C311.411 123.603 310.086 122.652 309.201 120.929C308.387 119.428 308.223 117.821 308.405 116.692C308.405 116.692 308.405 116.691 308.422 116.589C308.137 62.5966 366.614 50.9368 411.632 55.9708Z" fill="#98BE88"/>
</svg>
