<svg width="22" height="23" viewBox="0 0 22 23" fill="none" xmlns="http://www.w3.org/2000/svg">
<g clip-path="url(#clip0_1_894)">
<path d="M9.185 22.5265C3.96 21.5915 0 17.0815 0 11.6365C0 5.58647 4.95 0.636475 11 0.636475C17.05 0.636475 22 5.58647 22 11.6365C22 17.0815 18.04 21.5915 12.815 22.5265L12.21 22.0315H9.79L9.185 22.5265Z" fill="url(#paint0_linear_1_894)"/>
<path d="M15.2902 14.7165L15.7852 11.6365H12.8702V9.49145C12.8702 8.61145 13.2002 7.95145 14.5202 7.95145H15.9502V5.14645C15.1802 5.03645 14.3002 4.92645 13.5302 4.92645C11.0002 4.92645 9.24023 6.46645 9.24023 9.21645V11.6365H6.49023V14.7165H9.24023V22.4715C9.84523 22.5815 10.4502 22.6365 11.0552 22.6365C11.6602 22.6365 12.2652 22.5815 12.8702 22.4715V14.7165H15.2902Z" fill="white"/>
</g>
<defs>
<linearGradient id="paint0_linear_1_894" x1="11.0005" y1="21.8714" x2="11.0005" y2="0.632422" gradientUnits="userSpaceOnUse">
<stop stop-color="#0062E0"/>
<stop offset="1" stop-color="#19AFFF"/>
</linearGradient>
<clipPath id="clip0_1_894">
<rect width="22" height="22" fill="white" transform="translate(0 0.636475)"/>
</clipPath>
</defs>
</svg>
