<svg width="25" height="21" viewBox="0 0 25 21" fill="none" xmlns="http://www.w3.org/2000/svg">
<path d="M1.54883 11.0596V17.0596C1.54883 17.59 1.75954 18.0987 2.13461 18.4738C2.50969 18.8489 3.0184 19.0596 3.54883 19.0596H21.5488C22.0793 19.0596 22.588 18.8489 22.963 18.4738C23.3381 18.0987 23.5488 17.59 23.5488 17.0596V11.0596" stroke="#0E0B0B" stroke-width="2" stroke-miterlimit="10" stroke-linecap="square"/>
<path d="M23.5488 6.05957V3.05957C23.5488 2.52914 23.3381 2.02043 22.963 1.64536C22.588 1.27028 22.0793 1.05957 21.5488 1.05957H3.54883C3.0184 1.05957 2.50969 1.27028 2.13461 1.64536C1.75954 2.02043 1.54883 2.52914 1.54883 3.05957V6.05957L12.5488 12.0596L23.5488 6.05957Z" stroke="#0E0B0B" stroke-width="2" stroke-miterlimit="10" stroke-linecap="square"/>
</svg>
