<svg width="23" height="24" viewBox="0 0 23 24" fill="none" xmlns="http://www.w3.org/2000/svg">
<path d="M22.7754 9.62588H21.85V9.57646H11.5V14.1765H18.0002C17.0523 16.8538 14.5053 18.7765 11.5 18.7765C7.69062 18.7765 4.6 15.6858 4.6 11.8765C4.6 8.06709 7.69062 4.97646 11.5 4.97646C13.2609 4.97646 14.8602 5.64131 16.0775 6.72393L19.3299 3.47158C17.277 1.55791 14.5277 0.376465 11.5 0.376465C5.14805 0.376465 0 5.52451 0 11.8765C0 18.2284 5.14805 23.3765 11.5 23.3765C17.852 23.3765 23 18.2284 23 11.8765C23 11.1038 22.9191 10.3536 22.7754 9.62588Z" fill="#FFC107"/>
<path d="M1.3252 6.52178L5.10312 9.29346C6.12734 6.76436 8.60254 4.97646 11.5 4.97646C13.2609 4.97646 14.8602 5.64131 16.0775 6.72393L19.3299 3.47158C17.277 1.55791 14.5277 0.376465 11.5 0.376465C7.08418 0.376465 3.25234 2.86963 1.3252 6.52178Z" fill="#FF3D00"/>
<path d="M11.4999 23.3765C14.4692 23.3765 17.169 22.24 19.2085 20.3892L15.6507 17.3749C14.4962 18.2509 13.0587 18.772 11.4999 18.772C8.50811 18.772 5.97002 16.8628 5.01318 14.2034L1.26221 17.0919C3.16689 20.8204 7.03018 23.3765 11.4999 23.3765Z" fill="#4CAF50"/>
<path d="M22.7754 9.62589H21.85V9.57648H11.5V14.1765H18.0002C17.5465 15.4612 16.7154 16.5708 15.6508 17.3794L19.2086 20.3892C18.957 20.6183 23 17.6265 23 11.8765C23 11.1038 22.9191 10.3536 22.7754 9.62589Z" fill="#1976D2"/>
</svg>
