<svg width="22" height="20" viewBox="0 0 22 20" fill="none" xmlns="http://www.w3.org/2000/svg">
<path d="M16 1.20166H6C3.23858 1.20166 1 3.15336 1 5.5609V14.2794C1 16.6869 3.23858 18.6386 6 18.6386H16C18.7614 18.6386 21 16.6869 21 14.2794V5.5609C21 3.15336 18.7614 1.20166 16 1.20166Z" stroke="#D9D9D9" stroke-width="2" stroke-linecap="round" stroke-linejoin="round"/>
<path d="M16.4997 5.125H16.5097M14.9997 9.3709C15.1231 10.0965 14.981 10.8375 14.5935 11.4886C14.206 12.1397 13.5929 12.6677 12.8413 12.9975C12.0898 13.3273 11.2382 13.4421 10.4075 13.3255C9.57683 13.209 8.80947 12.8671 8.21455 12.3484C7.61962 11.8297 7.22744 11.1607 7.09377 10.4365C6.96011 9.71228 7.09177 8.96976 7.47003 8.31455C7.84829 7.65934 8.45389 7.12479 9.20069 6.78695C9.94749 6.44911 10.7975 6.32518 11.6297 6.43277C12.4786 6.54253 13.2646 6.88741 13.8714 7.41649C14.4782 7.94556 14.8738 8.63077 14.9997 9.3709Z" stroke="#D9D9D9" stroke-width="2" stroke-linecap="round" stroke-linejoin="round"/>
</svg>
