<svg width="163" height="60" viewBox="0 0 163 60" fill="none" xmlns="http://www.w3.org/2000/svg">
<path fill-rule="evenodd" clip-rule="evenodd" d="M53.0253 0.174446C44.7425 5.18972 41.4148 24.8874 29.877 21.5439C29.8334 21.5294 29.8044 21.5148 29.7608 21.4857C29.5719 21.4131 29.383 21.2968 29.2086 21.1223C28.9616 20.8752 28.8308 20.599 28.7727 20.3955C28.7581 20.3373 28.7436 20.2792 28.7291 20.2356C28.7291 20.2065 28.7145 20.1774 28.7145 20.1483C28.5838 19.4069 28.4966 18.6801 28.453 17.9823V17.9678C27.7264 5.39324 41.7055 0.465185 52.9672 0C53.0689 0 53.098 0.116298 53.0253 0.174446Z" fill="#E4E4E4"/>
<path fill-rule="evenodd" clip-rule="evenodd" d="M16.988 28.3328C16.9735 28.3618 16.9735 28.3909 16.9445 28.42C16.9154 28.5799 16.8282 28.7398 16.712 28.8706C16.5521 29.0596 16.3341 29.1759 16.1016 29.2195C16.0871 29.2341 16.0726 29.2341 16.0581 29.2486C4.7818 31.4291 0.40789 19.6687 0.00101527 10.2632C-0.013516 10.1615 0.131799 10.1324 0.189924 10.2196C4.22961 16.645 19.5746 19.2907 16.988 28.3328Z" fill="#E4E4E4"/>
<path fill-rule="evenodd" clip-rule="evenodd" d="M3.99715 56.0695C3.90996 56.0695 3.86637 55.9532 3.93903 55.895C8.22575 53.1039 10.0422 43.0007 15.9854 44.4398C16 44.4398 16.029 44.4398 16.0436 44.4544C16.0581 44.4544 16.0872 44.4689 16.1162 44.4689C16.2906 44.5125 16.494 44.6143 16.6539 44.8323C16.7992 45.0213 16.8573 45.2394 16.8573 45.3993C16.8573 45.3993 16.8573 45.3993 16.8573 45.4138C18.0925 52.8568 10.3037 55.7642 3.99715 56.0695Z" fill="#E4E4E4"/>
<path d="M41.299 37.8834C41.6042 38.1887 41.6769 38.5666 41.6042 38.9737C41.0375 41.6194 39.5989 44.0762 37.4483 45.8206C35.2976 47.5941 32.6094 48.7571 29.8194 48.7571C23.164 48.7571 17.7729 43.4802 17.7729 36.8513C17.7729 30.1933 23.1786 24.771 29.8194 24.771C32.3914 24.771 34.9198 25.6141 36.9542 27.1987C38.9595 28.7541 40.4998 30.8329 41.2554 33.2461C41.4879 33.9584 41.0665 34.7289 40.3545 34.9905C39.7151 35.1359 38.9595 34.8015 38.698 34.0892C37.3029 30.4986 33.6701 27.5476 29.8194 27.5476C24.6462 27.5476 20.4903 31.7052 20.4903 36.8513C20.4903 41.9538 24.6462 45.8497 29.8194 45.8497C33.5539 45.8497 36.9542 43.4656 38.3928 40.064H29.3979C28.715 40.064 28.032 39.4534 28.032 38.6975C28.032 37.9415 28.715 37.331 29.3979 37.331H40.2383C40.6887 37.3601 41.0665 37.5491 41.299 37.8834Z" fill="#E4E4E4"/>
<path d="M56.6004 42.1572C56.6004 42.9131 55.9901 43.5237 55.278 43.5237C54.5224 43.5237 53.9121 42.9131 53.9121 42.1572C53.9121 40.0348 52.2119 38.2612 50.0177 38.2612C47.8671 38.2612 46.1233 40.0348 46.1233 42.1572V47.4923C46.1233 48.2046 45.513 48.7715 44.801 48.7715C44.0454 48.7715 43.4351 48.2191 43.4351 47.4923V42.1572C43.4351 38.5665 46.3849 35.5864 50.0032 35.5864C53.6505 35.5864 56.6004 38.5665 56.6004 42.1572Z" fill="#E4E4E4"/>
<path d="M71.3642 42.1572C71.3642 42.9131 70.7539 43.5237 70.0418 43.5237H61.1196C61.7299 44.9192 63.154 46.0967 64.7815 46.0967C65.9876 46.0967 67.121 45.4862 67.8767 44.5849C68.2981 44.0179 69.1554 43.8725 69.7657 44.2796C70.376 44.7302 70.4487 45.6025 70.0273 46.1694C68.7485 47.7975 66.8595 48.7424 64.7815 48.7424C61.1487 48.7424 58.2134 45.7914 58.2134 42.1572C58.2134 38.5665 61.1632 35.5864 64.7815 35.5864C66.5543 35.5864 68.1382 36.2551 69.4315 37.5053C70.6521 38.7119 71.3642 40.3836 71.3642 42.1572ZM68.4579 40.8343C67.8476 39.4387 66.4235 38.2612 64.796 38.2612C63.0959 38.2612 61.6282 39.3224 61.1342 40.8343H68.4579Z" fill="#E4E4E4"/>
<path d="M86.1425 42.1572C86.1425 42.9131 85.5322 43.5237 84.8201 43.5237H75.8979C76.5083 44.9192 77.9323 46.0967 79.5598 46.0967C80.7659 46.0967 81.8994 45.4862 82.655 44.5849C83.0764 44.0179 83.9337 43.8725 84.544 44.2796C85.1544 44.7302 85.227 45.6025 84.8056 46.1694C83.5269 47.7975 81.6378 48.7424 79.5598 48.7424C75.927 48.7424 72.9917 45.7914 72.9917 42.1572C72.9917 38.5665 75.9415 35.5864 79.5598 35.5864C81.3326 35.5864 82.9165 36.2551 84.2098 37.5053C85.4159 38.7119 86.1425 40.3836 86.1425 42.1572ZM83.2217 40.8343C82.6114 39.4387 81.1873 38.2612 79.5598 38.2612C77.8597 38.2612 76.392 39.3224 75.8979 40.8343H83.2217Z" fill="#E4E4E4"/>
<path d="M100.95 42.1572V47.4923C100.95 48.2046 100.296 48.7715 99.5839 48.7715C98.8283 48.7715 98.2761 48.2191 98.2761 47.4923V42.1572C98.2761 40.0348 96.5324 38.2612 94.3527 38.2612C92.202 38.2612 90.4583 40.0348 90.4583 42.1572V47.2597C90.4583 48.0156 89.848 48.757 89.136 48.757C88.3803 48.757 87.77 48.0156 87.77 47.2597V42.1572C87.77 38.5665 90.7199 35.5864 94.3381 35.5864C98 35.5864 100.95 38.5665 100.95 42.1572Z" fill="#E4E4E4"/>
<path d="M115.67 36.9383V53.0744C115.67 56.665 112.72 59.6597 109.102 59.6597C105.469 59.6597 102.534 56.665 102.534 53.0744C102.534 52.3184 103.144 51.7079 103.9 51.7079C104.612 51.7079 105.222 52.3184 105.222 53.0744C105.222 55.2259 106.966 57.0139 109.116 57.0139C111.311 57.0139 113.011 55.2404 113.011 53.0744V47.5358C111.921 48.2917 110.511 48.815 109.116 48.815C105.484 48.815 102.548 45.864 102.548 42.2297V36.9383C102.548 36.1823 103.159 35.5863 103.914 35.5863C104.626 35.5863 105.237 36.1823 105.237 36.9383V42.2297C105.237 44.3812 106.98 46.1257 109.131 46.1257C111.209 46.1257 112.909 44.4975 113.025 42.3751V36.9237C113.025 36.1678 113.636 35.5718 114.391 35.5718C115.074 35.5863 115.67 36.1823 115.67 36.9383Z" fill="#E4E4E4"/>
<path d="M130.448 42.1572C130.448 42.9131 129.838 43.5237 129.126 43.5237C128.37 43.5237 127.76 42.9131 127.76 42.1572C127.76 40.0348 126.06 38.2612 123.865 38.2612C121.715 38.2612 119.971 40.0348 119.971 42.1572V47.4923C119.971 48.2046 119.361 48.7715 118.649 48.7715C117.893 48.7715 117.283 48.2191 117.283 47.4923V42.1572C117.283 38.5665 120.233 35.5864 123.851 35.5864C127.498 35.5864 130.448 38.5665 130.448 42.1572Z" fill="#E4E4E4"/>
<path d="M131.698 47.4196V36.9384C131.698 36.1825 132.308 35.5864 133.02 35.5864C133.776 35.5864 134.386 36.1825 134.386 36.9384V47.4196C134.386 48.1319 133.776 48.7424 133.02 48.7424C132.294 48.7424 131.698 48.1319 131.698 47.4196Z" fill="#E4E4E4"/>
<path d="M148.205 47.4925C148.205 48.2048 147.639 48.7718 146.883 48.7718H136.944C136.42 48.7718 135.883 48.5101 135.694 48.0885C135.549 47.478 135.578 46.9983 135.926 46.5767L143.628 38.247C141.361 38.247 139.167 38.2034 136.9 38.2034C136.188 38.2034 135.578 37.6364 135.578 36.8805C135.578 36.1682 136.188 35.5576 136.9 35.5576L146.796 35.6012C147.29 35.6012 147.784 35.9065 147.973 36.4008V36.3717C148.234 36.8223 148.162 37.4329 147.74 37.8545H147.784L139.966 46.1406H146.839C147.595 46.126 148.205 46.7366 148.205 47.4925Z" fill="#E4E4E4"/>
<path d="M162.548 42.1426C162.548 42.8986 161.937 43.5091 161.225 43.5091H152.303C152.914 44.9047 154.338 46.0822 155.965 46.0822C157.171 46.0822 158.305 45.4716 159.06 44.5703C159.482 44.0034 160.339 43.858 160.949 44.265C161.56 44.7157 161.632 45.5879 161.211 46.1549C159.932 47.783 158.043 48.757 155.965 48.757C152.332 48.757 149.397 45.7769 149.397 42.1572C149.397 38.5665 152.347 35.5864 155.965 35.5864C157.738 35.5864 159.322 36.2551 160.615 37.5053C161.836 38.6974 162.548 40.3691 162.548 42.1426ZM159.642 40.8198C159.031 39.4242 157.607 38.2467 155.98 38.2467C154.279 38.2467 152.812 39.3079 152.318 40.8198H159.642Z" fill="#E4E4E4"/>
</svg>
