<svg width="20" height="19" viewBox="0 0 20 19" fill="none" xmlns="http://www.w3.org/2000/svg">
<path d="M4.30672 4.99991C5.76807 3.53856 7.40027 2.4189 8.50425 1.74078C9.30886 1.24656 10.3046 1.24656 11.1092 1.74078C12.2132 2.4189 13.8454 3.53856 15.3067 4.99991C18.4751 8.16828 18.3067 9.99991 18.3067 12.9999C18.3067 14.4097 18.1963 15.5987 18.0792 16.4631C17.9561 17.3725 17.1629 17.9999 16.2452 17.9999H14.8067C13.7022 17.9999 12.8067 17.1045 12.8067 15.9999V13.9999C12.8067 13.2043 12.4907 12.4412 11.928 11.8786C11.3654 11.316 10.6024 10.9999 9.80673 10.9999C9.01108 10.9999 8.24802 11.316 7.68541 11.8786C7.1228 12.4412 6.80673 13.2043 6.80673 13.9999V15.9999C6.80673 17.1045 5.9113 17.9999 4.80673 17.9999H3.36828C2.45055 17.9999 1.65738 17.3725 1.53421 16.4631C1.41715 15.5987 1.30673 14.4097 1.30673 12.9999C1.30673 9.99991 1.13833 8.1683 4.30672 4.99991Z" stroke="#4D4D4D" stroke-width="1.5" stroke-linecap="round" stroke-linejoin="round"/>
</svg>
