<svg width="275" height="101" viewBox="0 0 275 101" fill="none" xmlns="http://www.w3.org/2000/svg">
<path fill-rule="evenodd" clip-rule="evenodd" d="M89.7063 0.612672C75.6938 9.04601 70.0642 42.1682 50.545 36.546C50.4713 36.5216 50.4221 36.4971 50.3483 36.4482C50.0288 36.326 49.7092 36.1305 49.4142 35.8371C48.9963 35.4216 48.775 34.9571 48.6767 34.6149C48.6521 34.5171 48.6275 34.4193 48.6029 34.346C48.6029 34.2971 48.5783 34.2482 48.5783 34.1993C48.3571 32.9527 48.2096 31.7305 48.1358 30.5571V30.5327C46.9067 9.38823 70.5558 1.10156 89.6079 0.319336C89.78 0.319336 89.8292 0.514894 89.7063 0.612672Z" fill="#417538"/>
<path fill-rule="evenodd" clip-rule="evenodd" d="M28.7396 47.9616C28.715 48.0105 28.7151 48.0594 28.6659 48.1083C28.6167 48.3772 28.4692 48.6461 28.2726 48.8661C28.0021 49.1838 27.6334 49.3794 27.2401 49.4527C27.2155 49.4772 27.1909 49.4772 27.1663 49.5016C8.08964 53.1683 0.690051 33.3927 0.00171758 17.5772C-0.0228658 17.4061 0.222972 17.3572 0.321305 17.5038C7.15547 28.3083 33.1155 32.7572 28.7396 47.9616Z" fill="#7DA761"/>
<path fill-rule="evenodd" clip-rule="evenodd" d="M6.76195 94.6017C6.61445 94.6017 6.5407 94.4062 6.66362 94.3084C13.9157 89.615 16.9886 72.6262 27.0432 75.0462C27.0678 75.0462 27.117 75.0462 27.1415 75.0706C27.1661 75.0706 27.2153 75.0951 27.2645 75.0951C27.5595 75.1684 27.9036 75.3395 28.174 75.7062C28.4199 76.0239 28.5182 76.3906 28.5182 76.6595C28.5182 76.6595 28.5182 76.6595 28.5182 76.6839C30.6078 89.1995 17.4311 94.0884 6.76195 94.6017Z" fill="#98BE88"/>
<path d="M69.8668 64.0215C70.3831 64.5349 70.506 65.1704 70.3831 65.8549C69.4243 70.3038 66.9906 74.4349 63.3522 77.3682C59.7139 80.3504 55.166 82.306 50.446 82.306C39.1868 82.306 30.0664 73.4326 30.0664 62.286C30.0664 51.0904 39.2114 41.9727 50.446 41.9727C54.7972 41.9727 59.0747 43.3904 62.5164 46.0549C65.9089 48.6704 68.5147 52.166 69.7931 56.2238C70.1864 57.4215 69.4735 58.7171 68.2689 59.1571C67.1872 59.4015 65.9089 58.8393 65.4664 57.6415C63.1064 51.6038 56.9606 46.6415 50.446 46.6415C41.6943 46.6415 34.6635 53.6326 34.6635 62.286C34.6635 70.866 41.6943 77.4171 50.446 77.4171C56.7639 77.4171 62.5164 73.4082 64.9501 67.6882H49.7331C48.5777 67.6882 47.4222 66.6615 47.4222 65.3904C47.4222 64.1193 48.5777 63.0926 49.7331 63.0926H68.0722C68.8343 63.1415 69.4735 63.4593 69.8668 64.0215Z" fill="#45484A"/>
<path d="M95.753 71.2081C95.753 72.4792 94.7205 73.5059 93.5159 73.5059C92.2376 73.5059 91.2051 72.4792 91.2051 71.2081C91.2051 67.6392 88.3288 64.657 84.6167 64.657C80.9784 64.657 78.0284 67.6392 78.0284 71.2081V80.1792C78.0284 81.377 76.9959 82.3303 75.7913 82.3303C74.513 82.3303 73.4805 81.4014 73.4805 80.1792V71.2081C73.4805 65.1703 78.4709 60.1592 84.5921 60.1592C90.7626 60.1592 95.753 65.1703 95.753 71.2081Z" fill="#45484A"/>
<path d="M120.73 71.2081C120.73 72.4792 119.698 73.5059 118.493 73.5059H103.399C104.432 75.8525 106.841 77.8325 109.594 77.8325C111.635 77.8325 113.552 76.8059 114.83 75.2903C115.543 74.337 116.994 74.0925 118.026 74.777C119.059 75.5347 119.182 77.0014 118.469 77.9547C116.305 80.6925 113.11 82.2814 109.594 82.2814C103.448 82.2814 98.4824 77.3192 98.4824 71.2081C98.4824 65.1703 103.473 60.1592 109.594 60.1592C112.593 60.1592 115.273 61.2836 117.461 63.3858C119.526 65.4147 120.73 68.2258 120.73 71.2081ZM115.814 68.9836C114.781 66.637 112.372 64.657 109.619 64.657C106.742 64.657 104.259 66.4414 103.424 68.9836H115.814Z" fill="#45484A"/>
<path d="M145.73 71.2081C145.73 72.4792 144.698 73.5059 143.493 73.5059H128.399C129.432 75.8525 131.841 77.8325 134.594 77.8325C136.635 77.8325 138.552 76.8059 139.83 75.2903C140.543 74.337 141.994 74.0925 143.026 74.777C144.059 75.5347 144.182 77.0014 143.469 77.9547C141.305 80.6925 138.11 82.2814 134.594 82.2814C128.448 82.2814 123.482 77.3192 123.482 71.2081C123.482 65.1703 128.473 60.1592 134.594 60.1592C137.593 60.1592 140.273 61.2836 142.461 63.3858C144.501 65.4147 145.73 68.2258 145.73 71.2081ZM140.789 68.9836C139.757 66.637 137.347 64.657 134.594 64.657C131.718 64.657 129.235 66.4414 128.399 68.9836H140.789Z" fill="#45484A"/>
<path d="M170.781 71.2081V80.1792C170.781 81.377 169.675 82.3303 168.471 82.3303C167.192 82.3303 166.258 81.4014 166.258 80.1792V71.2081C166.258 67.6392 163.308 64.657 159.621 64.657C155.982 64.657 153.032 67.6392 153.032 71.2081V79.7881C153.032 81.0592 152 82.3059 150.795 82.3059C149.517 82.3059 148.484 81.0592 148.484 79.7881V71.2081C148.484 65.1703 153.475 60.1592 159.596 60.1592C165.791 60.1592 170.781 65.1703 170.781 71.2081Z" fill="#45484A"/>
<path d="M195.684 62.4325V89.5659C195.684 95.6037 190.694 100.639 184.573 100.639C178.427 100.639 173.461 95.6037 173.461 89.5659C173.461 88.2948 174.493 87.2681 175.772 87.2681C176.976 87.2681 178.009 88.2948 178.009 89.5659C178.009 93.1837 180.959 96.1903 184.597 96.1903C188.309 96.1903 191.186 93.2081 191.186 89.5659V80.2525C189.342 81.5237 186.957 82.4036 184.597 82.4036C178.451 82.4036 173.486 77.4414 173.486 71.3303V62.4325C173.486 61.1614 174.518 60.1592 175.796 60.1592C177.001 60.1592 178.033 61.1614 178.033 62.4325V71.3303C178.033 74.9481 180.983 77.8814 184.622 77.8814C188.137 77.8814 191.013 75.1437 191.21 71.5748V62.4081C191.21 61.137 192.243 60.1348 193.521 60.1348C194.676 60.1592 195.684 61.1614 195.684 62.4325Z" fill="#45484A"/>
<path d="M220.685 71.2081C220.685 72.4792 219.652 73.5059 218.448 73.5059C217.169 73.5059 216.137 72.4792 216.137 71.2081C216.137 67.6392 213.26 64.657 209.548 64.657C205.91 64.657 202.96 67.6392 202.96 71.2081V80.1792C202.96 81.377 201.928 82.3303 200.723 82.3303C199.445 82.3303 198.412 81.4014 198.412 80.1792V71.2081C198.412 65.1703 203.403 60.1592 209.524 60.1592C215.694 60.1592 220.685 65.1703 220.685 71.2081Z" fill="#45484A"/>
<path d="M222.799 80.057V62.4325C222.799 61.1614 223.831 60.1592 225.036 60.1592C226.314 60.1592 227.347 61.1614 227.347 62.4325V80.057C227.347 81.2547 226.314 82.2814 225.036 82.2814C223.807 82.2814 222.799 81.2547 222.799 80.057Z" fill="#45484A"/>
<path d="M250.726 80.1792C250.726 81.377 249.767 82.3303 248.489 82.3303H231.674C230.789 82.3303 229.88 81.8903 229.56 81.1814C229.314 80.1548 229.363 79.3481 229.953 78.6392L242.982 64.6326C239.147 64.6326 235.435 64.5592 231.6 64.5592C230.396 64.5592 229.363 63.6059 229.363 62.3348C229.363 61.137 230.396 60.1104 231.6 60.1104L248.342 60.1837C249.177 60.1837 250.013 60.697 250.333 61.5281V61.4792C250.775 62.237 250.652 63.2637 249.94 63.9726H250.013L236.787 77.9059H248.415C249.694 77.8815 250.726 78.9081 250.726 80.1792Z" fill="#45484A"/>
<path d="M274.99 71.1836C274.99 72.4547 273.958 73.4814 272.753 73.4814H257.659C258.691 75.8281 261.101 77.8081 263.854 77.8081C265.894 77.8081 267.812 76.7814 269.09 75.2659C269.803 74.3125 271.253 74.0681 272.286 74.7525C273.318 75.5103 273.441 76.977 272.728 77.9303C270.565 80.6681 267.369 82.3059 263.854 82.3059C257.708 82.3059 252.742 77.2947 252.742 71.2081C252.742 65.1703 257.733 60.1592 263.854 60.1592C266.853 60.1592 269.533 61.2836 271.721 63.3858C273.786 65.3903 274.99 68.2014 274.99 71.1836ZM270.073 68.9592C269.041 66.6125 266.632 64.6325 263.878 64.6325C261.002 64.6325 258.519 66.417 257.683 68.9592H270.073Z" fill="#45484A"/>
</svg>
