<svg width="19" height="19" viewBox="0 0 19 19" fill="none" xmlns="http://www.w3.org/2000/svg">
<path d="M4.08883 2.1145C4.14883 3.0045 4.29883 3.8745 4.53883 4.7045L3.33883 5.9045C2.92883 4.7045 2.66883 3.4345 2.57883 2.1145H4.08883ZM13.9488 14.1345C14.7988 14.3745 15.6688 14.5245 16.5488 14.5845V16.0745C15.2288 15.9845 13.9588 15.7245 12.7488 15.3245L13.9488 14.1345ZM5.04883 0.114502H1.54883C0.998828 0.114502 0.548828 0.564502 0.548828 1.1145C0.548828 10.5045 8.15883 18.1145 17.5488 18.1145C18.0988 18.1145 18.5488 17.6645 18.5488 17.1145V13.6245C18.5488 13.0745 18.0988 12.6245 17.5488 12.6245C16.3088 12.6245 15.0988 12.4245 13.9788 12.0545C13.8796 12.0185 13.7744 12.0015 13.6688 12.0045C13.4088 12.0045 13.1588 12.1045 12.9588 12.2945L10.7588 14.4945C7.92425 13.0449 5.61844 10.7391 4.16883 7.9045L6.36883 5.7045C6.64883 5.4245 6.72883 5.0345 6.61883 4.6845C6.23948 3.53256 6.04704 2.3273 6.04883 1.1145C6.04883 0.564502 5.59883 0.114502 5.04883 0.114502Z" fill="#0E0B0B"/>
</svg>
