<svg width="21" height="15" viewBox="0 0 21 15" fill="none" xmlns="http://www.w3.org/2000/svg">
<path d="M20.92 1.92241C20.15 2.22756 19.32 2.42808 18.46 2.52398C19.34 2.0619 20.02 1.32955 20.34 0.448984C19.51 0.884908 18.59 1.19006 17.62 1.36443C16.83 0.614635 15.72 0.178711 14.46 0.178711C12.11 0.178711 10.19 1.85266 10.19 3.91894C10.19 4.21537 10.23 4.50308 10.3 4.77335C6.74 4.61642 3.57 3.12556 1.46 0.867471C1.09 1.41674 0.88 2.0619 0.88 2.74195C0.88 4.041 1.63 5.19184 2.79 5.84573C2.08 5.84573 1.42 5.67136 0.84 5.4098V5.43596C0.84 7.2494 2.32 8.76642 4.28 9.10644C3.65073 9.25658 2.9901 9.27747 2.35 9.16747C2.62161 9.9107 3.15354 10.561 3.87102 11.0271C4.5885 11.4931 5.45545 11.7514 6.35 11.7656C4.83363 12.8122 2.954 13.3779 1.02 13.3698C0.68 13.3698 0.34 13.3523 0 13.3175C1.9 14.3811 4.16 15.0001 6.58 15.0001C14.46 15.0001 18.79 9.29825 18.79 4.35487C18.79 4.18921 18.79 4.03228 18.78 3.86663C19.62 3.34352 20.34 2.68092 20.92 1.92241Z" fill="#D9D9D9"/>
</svg>
