<svg width="25" height="23" viewBox="0 0 25 23" fill="none" xmlns="http://www.w3.org/2000/svg">
<path d="M1.20459 12.2875V10.3476C1.20459 9.20136 2.14146 8.25348 3.29876 8.25348C5.29374 8.25348 6.10936 6.84266 5.10636 5.11222C4.53322 4.12024 4.8749 2.83067 5.8779 2.25753L7.7847 1.16636C8.65543 0.648325 9.77967 0.956939 10.2977 1.82767L10.4189 2.03709C11.4109 3.76754 13.0422 3.76754 14.0452 2.03709L14.1664 1.82767C14.6844 0.956939 15.8087 0.648325 16.6794 1.16636L18.5862 2.25753C19.5892 2.83067 19.9309 4.12024 19.3578 5.11222C18.3548 6.84266 19.1704 8.25348 21.1654 8.25348C22.3116 8.25348 23.2595 9.19034 23.2595 10.3476V12.2875C23.2595 13.4338 22.3227 14.3817 21.1654 14.3817C19.1704 14.3817 18.3548 15.7925 19.3578 17.5229C19.9309 18.5259 19.5892 19.8045 18.5862 20.3776L16.6794 21.4688C15.8087 21.9868 14.6844 21.6782 14.1664 20.8075L14.0452 20.5981C13.0532 18.8676 11.4219 18.8676 10.4189 20.5981L10.2977 20.8075C9.77967 21.6782 8.65543 21.9868 7.7847 21.4688L5.8779 20.3776C4.8749 19.8045 4.53322 18.5149 5.10636 17.5229C6.10936 15.7925 5.29374 14.3817 3.29876 14.3817C2.14146 14.3817 1.20459 13.4338 1.20459 12.2875Z" stroke="#4C4C4C" stroke-width="1.65329" stroke-miterlimit="10" stroke-linecap="round" stroke-linejoin="round"/>
</svg>
